<?xml version="1.0" standalone="no"?>
<!DOCTYPE svg PUBLIC "-//W3C//DTD SVG 20010904//EN"
 "http://www.w3.org/TR/2001/REC-SVG-20010904/DTD/svg10.dtd">
<svg version="1.0" xmlns="http://www.w3.org/2000/svg"
 width="150.000000pt" height="150.000000pt" viewBox="0 0 150.000000 150.000000"
 preserveAspectRatio="xMidYMid meet">

<g transform="translate(0.000000,150.000000) scale(0.100000,-0.100000)"
fill="#000000" stroke="none">
<path d="M285 1353 c-161 -58 -258 -198 -258 -373 0 -216 121 -379 547 -734
165 -139 180 -148 200 -136 62 39 339 282 462 404 203 204 249 290 249 466 -1
75 -6 107 -24 152 -31 81 -106 159 -189 200 -62 31 -73 33 -172 33 -97 0 -110
-2 -170 -31 -36 -17 -90 -54 -120 -82 l-55 -49 -57 52 c-88 82 -152 109 -268
112 -72 3 -107 -1 -145 -14z m208 -78 c77 -20 121 -50 198 -133 l64 -70 75 79
c98 102 162 133 270 134 94 0 169 -34 229 -101 56 -64 74 -126 69 -230 -4 -71
-10 -94 -43 -161 -33 -68 -58 -97 -184 -223 -123 -122 -382 -348 -410 -358
-15 -5 -320 257 -436 373 -162 164 -209 251 -210 395 0 100 23 159 87 221 81
79 178 104 291 74z"/>
</g>
</svg>
