<?xml version="1.0" standalone="no"?>
<!DOCTYPE svg PUBLIC "-//W3C//DTD SVG 20010904//EN"
 "http://www.w3.org/TR/2001/REC-SVG-20010904/DTD/svg10.dtd">
<svg version="1.0" xmlns="http://www.w3.org/2000/svg"
 width="150.000000pt" height="150.000000pt" viewBox="0 0 150.000000 150.000000"
 preserveAspectRatio="xMidYMid meet">

<g transform="translate(0.000000,150.000000) scale(0.100000,-0.100000)"
fill="#000000" stroke="none">
<path d="M26 1418 c-25 -35 -2 -56 114 -102 l104 -42 67 -366 c37 -201 70
-376 74 -388 4 -13 18 -23 36 -27 17 -3 28 -11 25 -17 -24 -57 -48 -147 -43
-160 4 -9 20 -19 36 -22 29 -6 30 -8 16 -27 -21 -31 -19 -106 5 -144 51 -84
179 -84 230 0 24 38 26 97 5 137 l-16 30 156 0 156 0 -15 -22 c-38 -54 -9
-161 53 -193 120 -61 248 66 186 185 -15 29 -15 30 5 30 50 0 77 39 48 68 -9
9 -110 12 -395 12 -211 0 -383 3 -383 8 0 4 9 30 19 57 l19 50 370 5 c204 3
373 8 377 12 4 3 53 152 110 329 76 237 101 328 94 341 -13 24 -24 25 -469 43
-511 20 -507 20 -520 -5 -17 -33 3 -58 53 -64 23 -3 220 -13 437 -22 217 -8
396 -17 397 -18 1 -1 -35 -119 -80 -261 l-83 -260 -376 -3 -375 -2 -7 32 c-4
18 -34 182 -66 363 -33 182 -64 339 -69 350 -6 14 -46 35 -132 68 -68 26 -129
47 -136 47 -6 0 -19 -10 -27 -22z m594 -1178 c28 -28 25 -64 -6 -89 -33 -26
-58 -27 -84 -1 -24 24 -26 57 -4 88 19 28 67 29 94 2z m520 0 c26 -26 25 -58
-2 -87 -26 -28 -61 -30 -88 -3 -24 24 -26 57 -4 88 19 28 67 29 94 2z"/>
</g>
</svg>
